<?xml version="1.0" standalone="no"?>
<!DOCTYPE svg PUBLIC "-//W3C//DTD SVG 20010904//EN"
 "http://www.w3.org/TR/2001/REC-SVG-20010904/DTD/svg10.dtd">
<svg version="1.0" xmlns="http://www.w3.org/2000/svg"
 width="144.000000pt" height="144.000000pt" viewBox="0 0 144.000000 144.000000"
 preserveAspectRatio="xMidYMid meet">
<metadata>
Created by potrace 1.11, written by Peter Selinger 2001-2013
</metadata>
<g transform="translate(0.000000,144.000000) scale(0.100000,-0.100000)"
fill="#000000" stroke="none">
<path d="M686 1354 c-3 -9 -6 -29 -6 -46 0 -42 -21 -109 -32 -102 -5 3 -25 40
-44 81 l-36 75 -35 -5 c-52 -9 -128 -49 -126 -67 1 -8 13 -46 28 -84 14 -38
23 -71 21 -74 -5 -4 -21 7 -107 76 -23 17 -45 32 -49 32 -17 0 -119 -123 -112
-135 4 -7 31 -33 61 -58 65 -56 87 -85 73 -99 -7 -7 -17 -6 -30 1 -25 13 -62
14 -62 2 0 -10 59 -21 123 -21 32 0 49 -5 53 -14 3 -8 18 -20 32 -26 58 -23
130 -75 120 -86 -11 -11 -240 -5 -254 7 -12 10 -192 59 -215 59 -6 0 -9 -10
-7 -22 2 -16 11 -24 28 -26 14 -2 63 -15 110 -29 106 -31 249 -41 368 -23 95
13 99 14 124 32 14 10 21 8 42 -15 14 -16 26 -30 26 -32 0 -2 -16 -13 -35 -25
-19 -12 -35 -29 -35 -38 0 -10 -9 -23 -20 -30 -14 -8 -20 -23 -20 -48 0 -19
-5 -44 -11 -55 -5 -11 -10 -49 -10 -83 0 -39 -6 -71 -14 -82 -8 -11 -15 -32
-15 -48 0 -16 -8 -43 -18 -60 -10 -17 -27 -60 -38 -94 -10 -35 -26 -68 -35
-72 -18 -10 -89 6 -89 20 0 10 -68 25 -76 17 -10 -9 91 -59 181 -89 84 -28 97
-30 200 -25 86 4 125 10 179 31 144 55 232 120 309 230 92 130 132 262 122
401 -9 128 -12 137 -44 131 -25 -6 -187 16 -197 27 -6 6 143 87 162 87 8 0 14
8 14 17 0 21 -78 153 -94 159 -7 3 -41 -9 -77 -26 -35 -16 -65 -26 -67 -21 -2
6 15 33 38 62 39 49 40 53 24 71 -26 28 -105 78 -125 78 -9 0 -34 -21 -55 -47
-55 -70 -82 -95 -87 -86 -3 5 -1 46 5 92 12 99 8 105 -64 108 -28 1 -61 4 -73
7 -15 4 -25 1 -29 -10z m107 -74 c-1 -25 -3 -70 -4 -100 -1 -30 -5 -57 -10
-60 -4 -3 -16 -39 -26 -80 -14 -53 -24 -76 -36 -78 -15 -3 -17 6 -18 65 0 37
-4 77 -8 88 -5 11 -4 27 0 35 12 24 29 106 29 143 0 43 4 46 43 38 31 -7 32
-9 30 -51z m-159 -162 c2 -7 9 -42 16 -78 6 -36 15 -69 19 -73 9 -9 -9 -57
-21 -57 -4 0 -14 15 -22 33 -7 17 -25 43 -40 56 -14 14 -26 29 -26 34 0 6 -7
18 -16 28 -20 22 -11 39 20 39 13 0 29 7 36 15 15 18 29 19 34 3z m266 -13 c0
-8 9 -20 20 -27 11 -7 20 -19 20 -27 0 -16 -75 -91 -91 -91 -5 0 -9 -9 -9 -20
0 -21 -34 -45 -50 -35 -18 11 -10 51 20 106 16 30 30 61 30 70 0 8 5 20 12 27
17 17 48 15 48 -3z m-385 -82 c11 -20 37 -57 58 -82 67 -82 35 -109 -57 -48
-27 17 -61 39 -75 47 -33 21 -37 36 -12 50 12 6 21 19 21 28 0 20 18 42 35 42
6 0 19 -17 30 -37z m507 -22 c4 -1 5 -14 2 -31 -5 -22 -2 -31 10 -36 24 -9 19
-34 -7 -34 -13 0 -28 -5 -33 -10 -6 -6 -42 -16 -81 -24 l-70 -13 21 37 c25 43
114 118 136 114 8 -1 18 -3 22 -3z m33 -181 c3 -10 1 -28 -4 -39 -6 -11 -11
-29 -11 -41 0 -17 -4 -20 -17 -15 -10 4 -34 11 -53 16 -19 4 -51 12 -70 16
-62 15 -49 48 25 60 17 2 46 8 65 13 53 12 58 12 65 -10z m-100 -132 c79 -25
107 -50 71 -64 -10 -4 -16 -18 -16 -35 0 -37 -13 -37 -60 1 -21 17 -41 30 -45
30 -13 0 -85 74 -85 88 0 17 25 14 135 -20z m326 -48 c26 0 29 -3 29 -35 0
-49 -20 -53 -75 -14 -54 39 -61 65 -14 55 17 -3 44 -6 60 -6z m-372 -69 c57
-56 65 -86 26 -101 -14 -5 -25 -17 -25 -25 0 -9 -6 -18 -14 -21 -17 -7 -66 23
-66 41 0 6 -11 33 -25 59 -14 26 -25 49 -25 52 0 2 11 4 25 4 14 0 29 8 35 20
6 11 12 20 15 20 2 0 26 -22 54 -49z m-155 -3 c8 -13 22 -43 31 -68 9 -25 21
-54 25 -65 5 -11 9 -54 8 -95 0 -41 6 -106 12 -143 6 -37 9 -74 7 -81 -6 -14
-70 -28 -91 -20 -8 3 -13 27 -14 66 -1 34 -8 80 -16 102 -35 104 -42 254 -14
309 12 24 35 21 52 -5z m412 -164 c24 -14 44 -30 44 -35 0 -17 -43 -69 -57
-69 -13 0 -31 27 -43 69 -4 14 -11 34 -15 44 -11 25 18 22 71 -9z m-200 -175
c19 -27 33 -53 29 -59 -9 -15 -81 -50 -104 -50 -16 0 -19 8 -20 56 0 30 4 63
9 72 5 9 11 25 14 36 8 23 22 12 72 -55z m-266 -34 c6 -30 10 -67 8 -82 -3
-26 -7 -28 -49 -31 -33 -2 -52 2 -69 16 -22 18 -22 19 -6 50 9 17 16 37 16 45
0 22 39 57 65 57 21 0 25 -7 35 -55z"/>
<path d="M625 732 c-6 -5 -39 -14 -74 -21 -62 -12 -157 -57 -181 -86 -7 -8
-20 -15 -29 -15 -39 -1 -236 -68 -236 -81 0 -8 7 -12 15 -10 8 2 42 6 75 9 33
2 65 9 72 14 14 11 33 2 33 -15 0 -7 -31 -43 -70 -81 -62 -60 -86 -96 -62 -96
4 0 15 -12 24 -27 9 -16 30 -43 47 -61 l31 -33 58 55 c73 70 121 106 142 106
18 0 50 49 50 78 0 10 8 30 18 43 10 13 30 49 46 79 16 30 42 69 59 87 18 19
27 38 24 47 -7 17 -27 21 -42 8z m-39 -67 c3 -8 -9 -33 -28 -57 -19 -24 -45
-60 -57 -80 -25 -41 -36 -47 -45 -23 -3 9 -19 21 -36 26 -58 21 -31 63 74 118
65 35 84 38 92 16z"/>
</g>
</svg>
